# xmcd CD database file
#
# Track frame offsets:
#	150
#	21456
#	43028
#	62591
#	89453
#	114677
#	134017
#	157401
#	168493
#
# Disc length: 2397 seconds
#
# Revision: 0
# Processed by: cddbd v1.5.2PL0 Copyright (c) Steve Scherf et al.
# Submitted via: CDex 1.51
#
DISCID=85095b09
DTITLE=スカンク兄弟 - あこがれ
DYEAR=2007
DGENRE=Blues
TTITLE0=シマノホホエミ
TTITLE1=汽笛をならせ
TTITLE2=ポッコチピーダ
TTITLE3=あこがれ
TTITLE4=伊勢山
TTITLE5=サマータイヨー
TTITLE6=ひなた彼方
TTITLE7=島々
TTITLE8=僕のサンシャイン
EXTD=YEAR: 2007
EXTT0=
EXTT1=
EXTT2=
EXTT3=
EXTT4=
EXTT5=
EXTT6=
EXTT7=
EXTT8=
PLAYORDER=
